/* XPM */
static char *cdf50cdffb6746f6ee0325b1e993ed6c54UHXWDiVQX7R2xk[] = {
/* columns rows colors chars-per-pixel */
"32 32 6 1 ",
"  c None",
". c black",
"X c #6C7268",
"o c #D4CAB9",
"O c #D2D2D2",
"+ c white",
/* pixels */
"                                ",
"                                ",
"                                ",
"                                ",
"                                ",
"                                ",
"                                ",
"                                ",
"                                ",
"    ....               ....     ",
"   ..oo..             ..oo..    ",
"  ..o++o..           ..o++o..   ",
"  .o++O+o.............o+O++o.   ",
"  .o+O+O+ooooooooooooo+O+O+o.   ",
"  ..oOOOO+++++++++++++OOOOo..   ",
"   ..oOOOOOOOOOOOOOOOOOOOo..    ",
"  ..XoOOOoooooooooooooOOOoX..   ",
"  .XoOoOoXXXXXXXXXXXXXoOoOoX.   ",
"  .XooOoX.............XoOooX.   ",
"  ..XooX..           ..XooX..   ",
"   ..XX..             ..XX..    ",
"    ....                ..      ",
"                                ",
"                                ",
"                                ",
"                                ",
"                                ",
"                                ",
"                                ",
"                                ",
"                                ",
"                                "
};
