/* XPM */
static char *_40a4f7938cb4bf4c90c78e799f76fb3InFjBRVeLzID0xmy[] = {
/* columns rows colors chars-per-pixel */
"32 32 11 1 ",
"  c None",
". c black",
"X c #2B2927",
"o c #672704",
"O c #BB5C03",
"+ c #D26A08",
"@ c #C16C1C",
"# c #388582",
"$ c #1DC5BE",
"% c #00F7ED",
"& c #818180",
/* pixels */
"             ......             ",
"          ...%%%%%%...          ",
"        ..%%%######%%%..        ",
"       .%%###%####%###%%.       ",
"      .%##%##......##%##%.      ",
"     .##%##..oooooo..##%#%.     ",
"    .%###%.oooooooooo.%###%.    ",
"    .#%##.oo@++oO+++oo.##%#.    ",
"   .%##%.ooO@@+oO++@@oo.%##%.   ",
"   .%##.oooO+@+oO++@+ooo.##%.   ",
"  .%##.oo+oO+@+oO+@++oOoo.##%.  ",
"  .%#.oo++oO+@@oO@@++oO+oo.#%.  ",
" .%$#.oO++oO+++oO@+++oO++o.#$%. ",
" .%##oooooooooooooooooooooo##%. ",
" .%#o++++++++++++++++++++++o#%. ",
" .%%o+OOO&OOO&OOO&OOO&OOOOOo%%. ",
" .%$o+OOOOOOOOOOOOOOOOOOOOOo$%. ",
" .%#oooooooooooooooooooooooo#%. ",
" .%$#.oO++oO@++oO@@@+oO++o.#$%. ",
" .%%%.oO++oO@@+oO@+++oO++o.%%%. ",
" .%$#.oO+XoO+@+oO++++oO@+o.#$%. ",
" .%##.oOX&XO+@+oO+++@oO@@o.##%. ",
" .%$#.oO+XoO+@@oO++@@oO+@o.#$%. ",
" .%%%.oO+XoO+++oO@@@+oO+@o.%%%. ",
" .%$#.oO+XoO+++o@@+@+oO++o.#$%. ",
" .%##.oOX&XO+++o@++@+oO++o.##%. ",
" .%$#.oO+XoO@++oO+@@+oO+@o.#$%. ",
" .%%%.oO++oO@@+oO+@++oO@@o.%%%. ",
" .%$#.oO++oO+@@oO++++oO@+o.#$%. ",
" .%##.oO++oO+++oO++++oO++o.##%. ",
" .%$#.oooooooooooooooooooo.#$%. ",
"  ............................  "
};
