/* XPM */
static char *_d8d5add971f425cb488c20e93a14fe5W0iSuxIHwLAO7vJg[] = {
/* columns rows colors chars-per-pixel */
"32 32 3 1 ",
"  c #56D000",
". c #AAEE48",
"X c #DFF658",
/* pixels */
"..           .     X X X X      ",
"..   .   XX     .    X X      XX",
"        XX                ..   X",
"        X                 .. X  ",
"   X   X   XX       X        XX ",
"    X  X  XX     .            X ",
"    XX X XX             ..     X",
"  X  X X X  X           .       ",
"   X X X X X           .        ",
"   X X X X X   X  .   .   ..    ",
"     X X X         .  .  ..    .",
"                   .. . ..      ",
"     ..          .  . . .  .    ",
"    ..    .       . . . . .   X ",
".  .              . . . . .     ",
" . .  .      .      . . .       ",
" . . .    X                     ",
" . . .          X               ",
" . . .        .      XX  .  .  X",
"   . .              XX        XX",
"       XX           X         X ",
"       XX  ..   X  X  X    X  X ",
" X         ..    X X X      X X ",
"                 X X X      X X ",
"     .             X    .       ",
"                                ",
"         .        .             ",
" X          .    .          .   ",
"   ..        .  ..  ..         .",
"   ..   X    .. .  ..   XX    . ",
" .         .  . . ..    XX   .. ",
"            . . . .          .  "
};
