/* XPM */
static char *ec5393ea8249477be6b9df7efc29416eSkNZr9KrFlygjvTV[] = {
/* columns rows colors chars-per-pixel */
"32 32 9 1 ",
"  c None",
". c black",
"X c #33312F",
"o c #614025",
"O c #744C2C",
"+ c #B2B1A6",
"@ c #D9CEC5",
"# c #EAE4DE",
"$ c #EBF9F8",
/* pixels */
"                                ",
"                                ",
"                                ",
"                                ",
"                     .    .     ",
"                    .X.  .X.    ",
"                    .X.  .X.    ",
"                    .O.  .O.    ",
"    .....           .OO..OO.    ",
"   .@@@##.         .@@@@###..   ",
"  .@@@##OO.        .@@@@$.###.. ",
"  .@@@#OOOO.      .@@@@#$.###.. ",
"  .@@@##OOO.      .@@@########. ",
"  .@@@#....       .@@@#######.  ",
"  .@@@.       ....@@@###Ooo..   ",
"   .@@@.......OO@@@@@###OO.     ",
"   .@@@@OO@@@OOOO@@@@#OO#O.     ",
"   .@@@OOOO@@OOO@@@@####O#.     ",
"    .@@@OO@@@@O@@@@@######.     ",
"    .@@@@@@@@@@@@@@@@@####.     ",
"   .@@@@@@@@@@@@@@@@@@@###.     ",
"   .@@@@#.#@@@@#@@@@@@.##.      ",
"   .@@@@#.######.#@@@@.@#.      ",
"   .@###.+++++++.##@@@.#@.      ",
"  .@#....++.......#@@.@@@.      ",
"  .#.   .+.      .##. .@.       ",
"  .#.   .+.      .#.  .@.       ",
"  .#.   .+.      .#.  .@.       ",
"  .#.   .+.      .#.  .@.       ",
"  .##.  .++.     .##. .@@.      ",
"   ...   ...      ...  ...      ",
"                                "
};
