/* XPM */
static char *_58726886ee94adef863852c7c85078bjGA4iZNski71AffM[] = {
/* columns rows colors chars-per-pixel */
"32 32 5 1 ",
"  c #703C00",
". c #7E4403",
"X c #985000",
"o c #E58E2D",
"O c #F9B365",
/* pixels */
"oooooooooooooooooooooooooooooooo",
"oooooooooooooooooooooooooooooooo",
"XXXXXXXXXXXXXXXXXXXXXXXXXXXXXXXX",
"XXXXXXXXXXXXXXXXXXXXXXXXXXXXXXXX",
"................................",
"................................",
"                                ",
"                                ",
"oooooooooooooooooooooooooooooooo",
"oooooooooooooooooooooooooooooooo",
"OOOOOoooOOOOOOOOOOOOOOOOOOOOOOoo",
"OOOOOoooOOOOOOOOOOOOOOOOOOOOOOoo",
"oooooooooooooooooooooooooooooooo",
"oooooooooooooooooooooooooooooooo",
"XXXXXXXXXXXXXXXXXXXXXXXXXXXXXXXX",
"XXXXXXXXXXXXXXXXXXXXXXXXXXXXXXXX",
"................................",
"................................",
"                                ",
"                                ",
"oooooooooooooooooooooooooooooooo",
"oooooooooooooooooooooooooooooooo",
"OOOOOOOOOOOOOOOOOoooOOOOOOOOOOOO",
"OOOOOOOOOOOOOOOOOoooOOOOOOOOOOOO",
"oooooooooooooooooooooooooooooooo",
"oooooooooooooooooooooooooooooooo",
"XXXXXXXXXXXXXXXXXXXXXXXXXXXXXXXX",
"XXXXXXXXXXXXXXXXXXXXXXXXXXXXXXXX",
"................................",
"................................",
"                                ",
"                                "
};
