/* XPM */
static char *b2661c7684ac474ad11a377c1b3d78f7OHFafhEa3ak79iKn[] = {
/* columns rows colors chars-per-pixel */
"32 32 4 1 ",
"  c #782D04",
". c #D44C03",
"X c #FB9C67",
"o c #FDB86A",
/* pixels */
"XXX. XXXXXXXXXXXX. XXXXXXXXXXXXX",
".... ............. .............",
"                                ",
"ooooooooooooo ooooooooooooo oooo",
"oXXXXXXXXXXX. oXXXXXXXXXXX. oXXX",
"oXXXXXXXXXXX. oXXXXXXXXXXX. oXXX",
"o............ o............ o...",
"                                ",
"ooo. ooooooooooooo ooooooooooooo",
"XXX. oXXXXXXXXXXX. oXXXXXXXXXXX.",
"XXX. oXXXXXXXXXXX. oXXXXXXXXXXX.",
"XXX. oXXXXXXXXXXX. oXXXXXXXXXXX.",
".... o............ o............",
"                                ",
"ooooooooooooo ooooooooooooo oooo",
"oXXXXXXXXXXX. oXXXXXXXXXXX. oXXX",
"oXXXXXXXXXXX. oXXXXXXXXXXX. oXXX",
"oXXXXXXXXXXX. oXXXXXXXXXXX. oXXX",
"o............ o............ o...",
"                                ",
"ooo. ooooooooooooo ooooooooooooo",
"XXX. oXXXXXXXXXXX. oXXXXXXXXXXX.",
"XXX. oXXXXXXXXXXX. oXXXXXXXXXXX.",
"XXX. oXXXXXXXXXXX. oXXXXXXXXXXX.",
".... o............ o............",
"                                ",
"ooooooooooooo ooooooooooooo oooo",
"oXXXXXXXXXXX. oXXXXXXXXXXX. oXXX",
"oXXXXXXXXXXX. oXXXXXXXXXXX. oXXX",
"oXXXXXXXXXXX. oXXXXXXXXXXX. oXXX",
"o............ o............ o...",
"                                "
};
